<?xml version="1.0" standalone="no"?>
<!DOCTYPE svg PUBLIC "-//W3C//DTD SVG 20010904//EN"
 "http://www.w3.org/TR/2001/REC-SVG-20010904/DTD/svg10.dtd">
<svg version="1.0" xmlns="http://www.w3.org/2000/svg"
 width="1350.000000pt" height="1350.000000pt" viewBox="0 0 1350.000000 1350.000000"
 preserveAspectRatio="xMidYMid meet">
<metadata>
Created by potrace 1.10, written by Peter Selinger 2001-2011
</metadata>
<g transform="translate(0.000000,1350.000000) scale(0.100000,-0.100000)"
fill="#000000" stroke="none">
<path d="M937 10050 c-26 -5 -62 -17 -80 -27 l-32 -19 3 -135 c1 -74 2 -1234
2 -2579 1 -1345 4 -2465 9 -2489 5 -24 18 -53 30 -65 21 -21 25 -21 506 -23
333 -1 497 2 521 10 67 20 67 21 65 552 -1 259 -3 533 -6 610 -7 244 -7 913
-1 924 9 14 340 15 365 2 10 -6 31 -29 47 -53 38 -57 179 -249 268 -367 39
-51 84 -112 100 -135 40 -56 152 -207 251 -341 46 -60 104 -141 130 -179 44
-66 46 -72 41 -120 -10 -79 -19 -752 -11 -802 3 -24 17 -57 30 -72 l23 -27
523 -1 c578 -1 606 1 623 52 6 18 11 273 12 674 l1 645 -36 50 c-20 28 -48 68
-63 90 -27 40 -156 212 -204 272 -14 17 -65 81 -112 143 -155 200 -226 288
-303 377 -41 49 -110 134 -152 189 -42 56 -98 125 -125 155 -29 32 -47 60 -44
69 8 22 275 355 312 390 8 7 258 298 301 351 69 82 194 231 297 353 57 66 109
132 114 146 6 15 12 185 13 425 2 220 7 513 10 652 l7 252 -33 20 c-62 38
-141 43 -589 39 -409 -3 -427 -4 -471 -24 -26 -12 -49 -26 -52 -30 -3 -5 -1
-214 3 -464 5 -250 6 -490 3 -533 l-6 -78 -76 -82 c-42 -45 -108 -120 -146
-167 -69 -83 -114 -142 -334 -435 -102 -136 -210 -270 -236 -290 -6 -5 -19
-24 -28 -42 -9 -17 -25 -34 -34 -37 -10 -3 -96 -5 -191 -4 -95 0 -176 -2 -179
-6 -4 -3 93 -6 215 -6 199 0 224 2 237 18 8 9 36 47 62 83 46 64 109 145 156
199 31 35 86 103 150 185 31 39 62 77 70 86 8 9 55 70 106 135 124 163 181
234 213 269 15 17 28 35 28 41 0 5 14 23 31 40 49 47 62 79 54 140 -7 58 -7
290 0 449 10 249 17 362 22 382 3 16 -2 24 -24 35 -22 10 -29 21 -31 52 l-3
38 97 -7 c131 -10 696 -11 817 -1 l97 8 0 -29 c0 -19 -9 -36 -30 -53 -27 -23
-29 -28 -21 -60 5 -19 12 -255 15 -525 4 -269 9 -511 12 -537 5 -45 4 -49 -39
-95 -38 -41 -162 -189 -302 -358 -22 -27 -56 -68 -75 -90 -19 -23 -60 -72 -90
-110 -105 -129 -432 -520 -491 -587 -68 -76 -74 -105 -31 -137 43 -32 56 -47
77 -88 19 -36 80 -122 94 -133 4 -3 35 -43 70 -90 35 -47 83 -107 106 -135 23
-27 85 -108 139 -180 53 -71 100 -134 104 -140 5 -5 66 -86 137 -180 71 -93
135 -176 142 -183 7 -7 13 -16 13 -20 0 -4 14 -22 30 -40 16 -19 46 -56 67
-83 20 -27 40 -49 44 -49 12 0 18 -44 7 -57 -7 -9 -11 -183 -11 -555 0 -486 1
-547 16 -583 9 -22 18 -62 19 -90 l3 -50 -39 3 c-46 4 -106 31 -70 32 11 0 29
6 39 14 17 12 7 15 -85 21 -133 9 -876 3 -886 -8 -11 -10 0 -18 38 -27 33 -7
33 -7 -26 -24 -84 -26 -88 -20 -70 114 10 69 16 221 19 445 2 187 5 354 6 370
2 25 -17 58 -107 177 -60 81 -140 191 -179 245 -38 53 -88 122 -111 152 -93
127 -244 335 -344 474 -59 81 -117 155 -129 163 -19 13 -59 16 -238 17 l-216
1 -24 -29 c-21 -24 -24 -35 -18 -69 3 -23 6 -461 6 -973 0 -513 3 -933 8 -933
11 0 31 -79 31 -125 0 -46 -16 -51 -82 -29 l-53 18 33 8 c17 5 32 12 32 17 0
15 -120 21 -429 21 -415 0 -533 -11 -428 -38 l32 -8 -49 -17 c-85 -29 -89 -25
-74 84 6 46 11 982 13 2489 2 1328 5 2426 5 2440 l2 25 7 -25 c7 -20 9 -14 16
35 4 33 8 62 8 65 0 2 -9 9 -19 15 -28 15 -34 26 -34 63 l0 33 98 -7 c135 -10
651 -11 800 -1 l122 8 0 -28 c0 -18 -10 -36 -29 -53 l-28 -25 8 -190 c11 -279
11 -1677 -1 -1753 -14 -82 -4 -102 50 -102 35 0 40 3 40 23 0 12 7 30 14 40
13 17 32 18 215 17 189 -1 200 0 210 19 20 37 14 54 -16 47 -16 -4 -91 -9
-168 -12 -77 -3 -158 -10 -180 -14 -32 -8 -42 -6 -52 6 -16 21 -27 240 -20
392 4 70 8 467 9 882 l3 754 -50 21 c-47 19 -74 20 -490 21 -242 1 -461 -2
-488 -6z"/>
<path d="M5171 10050 c-63 -15 -109 -41 -113 -64 -2 -11 0 -183 3 -381 6 -303
10 -3658 5 -4530 -1 -251 0 -273 19 -310 17 -34 26 -41 60 -46 53 -9 976 -4
995 5 8 4 24 19 35 34 19 26 20 41 18 547 -4 992 -10 1510 -17 1527 -16 36 28
39 631 36 467 -2 585 -6 592 -16 4 -7 4 -36 -1 -65 -5 -29 -7 -164 -6 -302 2
-137 0 -547 -5 -910 -4 -395 -4 -692 2 -740 15 -133 -31 -122 552 -121 384 2
500 5 521 15 18 9 30 26 37 55 8 30 13 741 16 2576 3 1394 6 2557 7 2583 6
110 -52 120 -627 114 -428 -4 -466 -8 -507 -49 -19 -19 -20 -28 -14 -92 4 -39
9 -466 12 -948 6 -897 4 -948 -31 -948 -8 0 -17 5 -20 10 -3 6 -20 10 -38 10
-50 0 -137 23 -137 37 0 20 24 67 40 80 29 24 -7 13 -76 -23 -193 -100 -483
-100 -672 1 -36 19 -67 33 -69 31 -5 -4 13 -46 29 -68 18 -25 -12 -44 -79 -51
-29 -3 -66 -12 -83 -20 -57 -29 -55 -52 -55 732 0 394 2 834 5 978 5 294 9
278 -70 305 -41 14 -904 22 -959 8z m459 -55 c157 0 336 4 398 8 l112 8 0 -28
c0 -19 -9 -36 -30 -53 -30 -25 -30 -26 -20 -79 23 -121 30 -1600 8 -1809 -13
-128 -10 -134 51 -130 28 3 35 8 45 37 l11 34 260 -4 c311 -4 340 -4 659 0
136 2 252 -1 256 -6 5 -4 10 -19 12 -33 2 -21 9 -25 38 -28 62 -4 64 3 51 120
-8 70 -11 352 -10 883 0 842 1 879 19 945 11 42 11 44 -19 67 -22 18 -31 33
-31 54 l0 30 98 -8 c122 -10 673 -10 810 0 l102 7 0 -32 c0 -25 -8 -40 -30
-58 -29 -24 -30 -27 -19 -65 6 -22 16 -43 22 -47 7 -4 11 -758 12 -2430 1
-1333 4 -2429 7 -2434 4 -5 9 -44 12 -87 6 -66 4 -78 -9 -84 -19 -7 -125 16
-125 27 0 4 18 10 39 14 71 11 53 24 -43 31 -118 9 -802 2 -812 -8 -12 -11 1
-18 45 -24 23 -3 40 -8 38 -10 -11 -10 -129 -34 -144 -29 -13 5 -15 17 -10 72
4 36 14 80 22 97 17 33 18 200 11 1017 -1 135 1 412 4 615 l6 370 -23 23 -24
22 -638 0 c-637 0 -638 0 -666 -21 -23 -19 -26 -27 -21 -63 5 -42 11 -1311 7
-1557 -2 -74 1 -153 5 -174 5 -27 4 -36 -5 -31 -16 10 -15 -116 1 -132 18 -18
39 -213 26 -230 -11 -13 -33 -11 -113 10 l-40 11 44 8 c48 9 58 15 47 26 -10
11 -673 17 -803 8 -105 -7 -118 -15 -53 -33 l35 -9 -40 -11 c-84 -24 -90 -22
-93 27 -4 58 14 172 29 182 9 5 10 12 3 21 -6 8 -9 775 -8 2018 1 1952 6 2544
24 2760 l9 105 -29 25 c-20 17 -30 34 -30 53 l0 27 113 -7 c61 -5 240 -8 397
-8z"/>
<path d="M5285 9900 l-30 -7 30 -14 c23 -11 99 -15 339 -17 279 -3 313 -1 345
15 l36 17 -50 7 c-66 9 -632 9 -670 -1z"/>
<path d="M7621 9901 l-43 -6 21 -19 c19 -17 44 -20 209 -27 103 -3 250 -5 327
-2 127 4 142 6 163 26 l24 22 -49 7 c-59 8 -591 7 -652 -1z"/>
<path d="M6442 7924 c10 -9 501 -12 523 -3 11 4 -101 8 -254 8 -151 1 -272 -2
-269 -5z"/>
<path d="M7033 7923 c8 -7 119 -5 126 3 2 2 -26 4 -64 4 -38 0 -65 -3 -62 -7z"/>
<path d="M6160 7811 c-92 -6 -93 -13 -7 -42 42 -14 116 -17 570 -18 287 -1
529 -3 537 -4 60 -8 230 30 230 52 0 4 -44 11 -97 14 -116 8 -1110 6 -1233 -2z"/>
<path d="M9600 10049 c-171 -9 -194 -23 -196 -123 0 -34 -7 -182 -15 -331 -8
-148 -14 -344 -14 -433 0 -157 1 -165 22 -182 21 -17 54 -18 522 -16 275 0
510 -2 523 -5 16 -4 22 -11 20 -25 -3 -18 -13 -2220 -12 -2780 0 -296 -1 -300
-71 -269 -24 11 -59 30 -77 43 l-34 23 -80 -48 c-80 -47 -80 -47 -58 -65 19
-15 35 -17 113 -12 51 4 110 10 132 15 46 9 62 0 73 -45 7 -28 13 -31 50 -34
54 -4 58 6 43 116 -13 96 -18 3044 -6 3117 5 32 3 46 -12 64 l-19 23 -439 5
c-501 7 -531 6 -558 -8 -32 -18 -7 -28 88 -36 80 -6 85 -8 50 -14 -22 -5 -84
-8 -137 -8 l-98 -1 0 43 c1 23 7 60 16 82 9 25 16 97 20 190 3 83 12 185 20
229 8 43 14 129 14 192 0 69 4 114 10 114 6 0 10 -4 10 -10 0 -21 18 -9 24 17
6 21 1 31 -24 55 -21 19 -30 36 -28 51 3 19 8 22 48 20 141 -5 2886 -3 2937 3
53 5 64 4 69 -10 10 -26 -3 -60 -28 -71 -25 -11 -33 -33 -19 -54 8 -12 12 -12
25 -2 14 12 16 1 18 -115 2 -71 2 -156 1 -189 -1 -40 1 -53 7 -40 13 34 18 1
23 -166 4 -106 10 -167 20 -191 18 -43 25 -135 11 -146 -5 -4 -101 -3 -214 3
l-205 11 163 5 c163 6 206 16 164 38 -15 8 -167 10 -508 7 l-488 -4 -19 -23
c-15 -18 -17 -32 -12 -64 12 -76 6 -3012 -7 -3118 -13 -112 -9 -119 51 -115
29 3 36 8 42 31 13 48 24 55 74 46 24 -5 87 -9 140 -10 74 -2 99 1 111 13 13
13 6 19 -57 57 -57 34 -77 41 -98 35 -14 -4 -32 -8 -39 -10 -8 -1 -21 -9 -30
-16 -33 -27 -69 -38 -85 -25 -14 11 -16 182 -20 1517 -3 828 -8 1512 -11 1520
-3 8 -2 22 4 30 8 13 79 15 502 16 271 1 508 2 525 3 25 1 36 8 48 31 20 38
23 179 8 375 -7 83 -18 257 -24 389 -9 169 -17 242 -26 251 -33 34 -110 36
-1489 38 -753 1 -1421 -1 -1484 -4z m183 -1016 c-13 -2 -35 -2 -50 0 -16 2 -5
4 22 4 28 0 40 -2 28 -4z"/>
<path d="M1060 9900 c-34 -10 -17 -15 98 -31 109 -14 543 -5 576 13 20 11 20
11 1 19 -26 10 -642 9 -675 -1z"/>
<path d="M3456 9901 c-16 -6 -15 -9 15 -22 27 -11 89 -14 294 -13 265 1 364 6
387 21 9 5 3 10 -17 14 -42 9 -656 9 -679 0z"/>
<path d="M9652 9903 c-34 -3 -43 -8 -40 -21 2 -9 17 -24 33 -32 26 -13 194
-15 1350 -15 1082 0 1326 2 1352 13 31 13 50 39 37 51 -6 7 -2662 10 -2732 4z"/>
<path d="M2628 8305 c-11 -12 -125 -48 -153 -50 -16 -1 -55 -3 -85 -4 -30 -1
-48 -5 -40 -8 8 -2 25 -9 38 -16 16 -8 25 -8 34 1 8 8 18 8 37 -3 14 -7 34
-16 44 -19 13 -4 17 -12 12 -26 -3 -11 -3 -20 0 -20 13 0 135 124 135 137 0
13 -12 18 -22 8z"/>
<path d="M2515 7816 c-11 -6 -23 -16 -27 -22 -16 -25 -135 -34 -385 -32 -239
3 -251 2 -236 -15 9 -9 34 -22 55 -28 46 -12 436 -12 489 0 42 10 92 44 115
79 19 29 16 33 -11 18z"/>
<path d="M9441 5790 c-97 -27 -96 -26 -83 -182 7 -73 17 -196 22 -273 43 -595
43 -597 104 -612 17 -4 225 -6 461 -4 237 2 446 4 465 3 19 -1 67 -1 105 0
123 3 1248 1 1605 -2 190 -2 364 0 387 4 35 6 46 14 57 39 15 34 41 305 51
527 3 74 13 205 21 292 11 107 13 162 6 174 -28 50 -340 65 -650 31 -84 -9
-196 -17 -249 -17 -53 0 -94 -2 -91 -5 3 -3 214 -8 469 -10 519 -6 504 -3 429
-72 l-41 -38 22 -61 c16 -44 20 -71 15 -98 -4 -20 -11 -34 -15 -32 -23 15 -28
-369 -7 -544 15 -125 9 -145 -37 -136 -18 3 -56 9 -84 12 -29 4 -53 10 -53 14
0 4 25 10 56 13 79 8 94 27 23 28 -236 4 -2780 4 -2837 1 -82 -6 -83 -19 -4
-29 29 -3 52 -9 52 -13 0 -4 -24 -10 -52 -13 -29 -3 -68 -9 -87 -13 l-34 -7 8
124 c11 166 13 433 4 456 -7 17 -8 17 -8 -2 -2 -34 -21 5 -21 42 0 35 16 53
23 26 3 -11 5 -7 6 10 0 16 -3 26 -8 22 -5 -3 -12 -1 -15 4 -6 9 9 138 20 178
5 16 -3 31 -30 59 -37 38 -46 63 -23 65 6 1 122 1 257 0 266 0 733 14 570 18
-52 1 -113 4 -135 7 -22 2 -122 11 -223 19 -242 20 -370 18 -451 -5z m3109
-421 c0 -11 -4 -17 -10 -14 -5 3 -10 13 -10 21 0 8 5 14 10 14 6 0 10 -9 10
-21z"/>
<path d="M9690 5653 c-118 -3 -167 -15 -124 -29 10 -3 28 -10 39 -14 57 -24
88 -29 106 -19 11 5 30 7 42 3 34 -11 687 -6 726 5 34 11 71 37 71 53 0 7
-566 8 -860 1z"/>
<path d="M11452 5648 c3 -7 23 -23 46 -36 40 -23 46 -23 359 -23 396 -1 583
15 583 50 0 11 -332 21 -692 21 -235 0 -299 -3 -296 -12z"/>
<path d="M9177 4626 c-107 -25 -233 -198 -244 -335 -5 -62 -2 -71 37 -151 50
-104 75 -139 130 -185 55 -46 97 -57 153 -40 53 16 123 51 132 65 9 14 41 3
90 -30 50 -34 91 -44 180 -42 137 4 169 11 223 53 l51 38 41 -26 c22 -15 40
-30 40 -34 0 -5 17 -13 38 -18 92 -26 165 -3 227 73 53 66 60 65 124 -2 45
-47 66 -61 105 -71 69 -17 121 -6 181 40 29 22 57 39 63 39 7 0 29 -16 50 -35
44 -39 93 -53 197 -56 110 -3 180 10 211 38 32 29 71 46 87 36 7 -4 28 -20 48
-35 82 -66 200 -43 281 54 22 27 46 48 53 48 7 0 29 -20 49 -44 49 -61 112
-96 162 -92 21 2 49 4 61 5 12 1 30 9 40 19 10 10 35 28 56 40 37 21 39 21 65
4 14 -9 37 -27 49 -38 32 -30 144 -45 250 -34 111 12 160 40 189 108 12 30 12
37 -6 72 -11 21 -24 41 -30 45 -5 3 -24 26 -40 51 -30 43 -31 48 -36 185 -3
78 -9 150 -15 160 -5 10 -26 35 -47 55 -37 36 -38 36 -104 31 -71 -6 -90 -14
-155 -64 -23 -18 -51 -33 -63 -33 -12 0 -42 18 -68 39 -26 22 -60 45 -75 50
-69 26 -147 1 -224 -73 -26 -25 -54 -46 -62 -46 -8 0 -36 21 -63 46 -53 50
-118 83 -161 84 -65 0 -178 -89 -226 -179 -18 -34 -36 -61 -41 -61 -13 0 -32
38 -25 50 3 5 -1 23 -10 39 -8 17 -15 38 -15 47 0 27 -87 97 -126 101 -52 5
-143 -32 -189 -77 -22 -22 -45 -40 -50 -40 -6 0 -25 16 -44 35 -49 51 -133 86
-185 79 -58 -9 -87 -26 -143 -84 -26 -27 -50 -50 -53 -50 -3 0 -32 24 -64 54
-70 65 -110 86 -165 86 -72 0 -152 -56 -216 -152 -33 -49 -54 -70 -66 -63 -4
3 -11 29 -14 58 -6 43 -15 62 -46 97 -74 83 -166 84 -271 4 -32 -24 -64 -44
-71 -44 -7 0 -31 16 -52 36 -74 67 -129 87 -198 70z m99 -74 c5 -4 24 -27 40
-52 17 -25 47 -69 67 -97 35 -50 37 -57 37 -131 0 -74 -2 -82 -33 -123 -19
-24 -50 -70 -70 -101 l-37 -58 -53 0 c-60 0 -74 8 -108 65 -13 22 -40 63 -61
90 -37 49 -38 52 -38 138 0 48 4 87 9 87 5 0 34 40 66 90 32 49 65 91 74 93
27 8 95 7 107 -1z m455 -177 c-3 -99 -5 -200 -5 -225 l-1 -45 50 -1 c28 -1 56
-2 63 -3 17 -2 16 -95 -1 -109 -9 -8 -33 -8 -77 -2 -37 5 -104 5 -155 1 -59
-6 -94 -5 -102 1 -7 6 -13 32 -13 59 0 32 4 49 13 50 6 1 36 2 66 3 l53 1 0
160 c0 106 -3 160 -11 163 -6 2 -21 -4 -33 -12 -12 -9 -35 -16 -50 -16 -27 0
-28 2 -28 49 0 55 17 81 55 81 12 0 38 7 56 15 19 8 54 14 79 12 l45 -2 -4
-180z m435 177 c7 -4 42 -51 78 -106 l66 -99 0 -71 c0 -56 -5 -79 -23 -108
-63 -105 -102 -164 -111 -170 -6 -4 -37 -8 -68 -8 -52 0 -59 3 -74 28 -31 49
-69 107 -74 112 -4 3 -16 21 -28 41 -17 28 -22 52 -22 107 0 68 2 75 43 132
23 34 50 75 60 93 10 18 26 38 35 45 17 13 100 16 118 4z m455 -2 c10 -6 19
-15 19 -20 0 -10 79 -128 107 -161 8 -10 13 -43 13 -94 0 -75 -2 -80 -38 -129
-21 -28 -49 -69 -62 -91 -33 -56 -47 -65 -107 -65 l-53 0 -65 98 -65 98 0 88
0 87 65 99 66 100 50 0 c28 0 59 -5 70 -10z m449 -2 c1 -12 -2 -289 -4 -393
l-1 -50 60 0 60 0 3 -39 c7 -84 14 -81 -175 -79 -92 1 -171 2 -175 3 -5 0 -8
25 -8 55 0 61 -3 58 79 59 l55 1 -1 158 c-1 87 -4 161 -7 165 -3 3 -26 -5 -51
-17 -25 -12 -49 -19 -55 -16 -14 9 -13 108 2 123 7 7 22 12 34 12 12 0 37 7
55 15 43 18 129 20 129 3z m436 4 c6 -4 39 -49 73 -99 l63 -92 -4 -93 c-3 -92
-4 -94 -50 -163 -83 -123 -73 -115 -131 -115 -29 0 -57 4 -64 8 -7 4 -42 52
-78 107 l-65 99 0 73 0 73 67 98 c36 53 71 100 77 104 6 4 31 8 56 8 25 0 50
-4 56 -8z m459 -12 c10 -11 23 -29 29 -40 6 -11 30 -47 54 -80 42 -60 42 -61
42 -149 0 -85 -1 -90 -34 -132 -18 -24 -48 -68 -66 -97 l-32 -53 -61 3 -61 3
-38 55 c-87 128 -98 153 -98 224 0 74 2 79 68 181 69 106 68 105 127 105 39 0
56 -5 70 -20z m445 -165 c-2 -99 -4 -200 -4 -225 l-1 -45 50 -1 c78 -1 75 1
75 -58 0 -38 -4 -55 -15 -60 -8 -3 -51 -1 -96 4 -54 6 -108 6 -157 -1 -88 -12
-102 -4 -102 62 0 47 18 62 64 53 20 -3 46 -4 58 -1 23 6 23 8 21 158 -1 84
-6 156 -11 161 -6 6 -24 1 -47 -11 -51 -27 -65 -19 -65 39 0 56 18 80 59 80
15 0 31 4 37 9 14 14 44 19 93 18 l44 -2 -3 -180z"/>
<path d="M9160 4368 c-22 -35 -40 -75 -40 -90 0 -26 59 -137 85 -158 19 -16
27 -9 74 61 25 37 41 73 41 91 0 16 -17 58 -37 93 -51 86 -69 86 -123 3z m90
-63 c15 -18 4 -71 -17 -79 -8 -4 -22 -1 -29 5 -14 12 -19 70 -7 82 11 12 40 8
53 -8z"/>
<path d="M10082 4418 c-7 -7 -12 -15 -12 -20 0 -4 -13 -29 -30 -55 -37 -58
-37 -80 -2 -135 15 -24 32 -52 38 -62 20 -37 41 -42 63 -15 11 13 20 28 21 32
0 5 11 23 24 40 44 60 43 72 -19 177 -30 50 -58 63 -83 38z m56 -110 c5 -7 7
-27 5 -45 -9 -55 -55 -52 -66 5 -6 31 7 52 33 52 10 0 22 -6 28 -12z"/>
<path d="M10530 4421 c0 -5 -16 -32 -35 -61 -44 -66 -45 -104 -5 -163 17 -25
30 -49 30 -54 0 -4 9 -14 21 -21 16 -10 24 -10 34 -2 21 17 85 135 85 156 0
10 -18 48 -40 86 -33 55 -46 68 -65 68 -14 0 -25 -4 -25 -9z m58 -139 c3 -32
-11 -62 -29 -62 -31 0 -54 82 -26 94 31 13 52 1 55 -32z"/>
<path d="M11395 4373 c-42 -65 -52 -108 -33 -140 7 -12 24 -42 37 -67 13 -25
30 -47 36 -50 19 -7 50 19 69 56 10 18 24 44 32 58 19 35 17 73 -6 103 -11 14
-20 28 -20 32 0 18 -43 65 -59 65 -11 0 -33 -23 -56 -57z m90 -72 c14 -45 -15
-88 -50 -75 -15 6 -22 74 -8 87 14 15 52 6 58 -12z"/>
<path d="M11837 4367 c-20 -35 -37 -77 -37 -92 0 -28 73 -165 89 -165 14 0 38
25 69 73 45 68 44 116 -5 191 -50 76 -68 75 -116 -7z m91 -85 c6 -59 -40 -86
-59 -35 -5 15 -7 38 -4 51 4 18 11 23 33 20 23 -2 28 -8 30 -36z"/>
<path d="M2028 4616 c-51 -18 -114 -76 -166 -153 -44 -66 -82 -85 -82 -42 0
46 -32 127 -60 154 -23 22 -42 29 -84 33 -69 6 -116 -10 -172 -59 -25 -21 -54
-39 -65 -39 -11 0 -42 19 -70 43 -55 47 -73 55 -142 56 -65 1 -105 -18 -149
-70 -21 -24 -47 -53 -58 -65 -11 -12 -20 -28 -20 -36 0 -9 -9 -36 -21 -62 -11
-25 -21 -68 -21 -94 -2 -56 28 -159 54 -188 10 -11 18 -25 18 -31 0 -37 145
-154 171 -138 5 4 16 1 24 -5 19 -16 66 0 129 45 61 43 84 44 121 5 16 -16 35
-30 42 -30 8 0 26 -6 42 -14 68 -36 260 -14 316 35 43 38 79 37 138 -2 37 -24
61 -32 108 -35 67 -5 88 6 171 84 34 33 39 34 66 23 16 -7 43 -26 58 -43 16
-16 54 -41 83 -54 73 -33 121 -26 191 27 29 21 61 39 71 39 10 0 36 -16 58
-35 21 -19 46 -35 55 -35 10 0 27 -5 39 -12 12 -6 53 -13 92 -14 85 -3 169 21
227 67 34 28 43 31 60 20 142 -89 203 -92 307 -16 44 32 71 32 107 -2 36 -33
102 -59 174 -68 55 -6 107 3 212 39 32 11 54 14 65 8 10 -5 54 -19 98 -30 73
-18 87 -19 166 -7 103 15 121 24 154 73 35 51 32 86 -13 146 -57 77 -60 90
-70 248 -9 142 -10 148 -38 178 -43 47 -79 60 -141 50 -73 -12 -117 -35 -147
-79 -30 -43 -35 -111 -10 -132 27 -22 54 -87 54 -129 0 -44 -39 -124 -65 -134
-16 -6 -22 0 -60 54 -42 59 -47 81 -41 155 3 42 0 96 -8 135 -11 54 -20 70
-52 98 -38 33 -40 34 -107 28 -78 -7 -96 -15 -150 -62 -20 -19 -44 -34 -53
-34 -8 0 -36 18 -62 39 -50 42 -108 71 -142 71 -12 0 -44 -7 -71 -16 -40 -13
-61 -30 -109 -86 -33 -38 -60 -73 -60 -79 0 -15 -57 -10 -74 7 -9 8 -16 28
-16 44 0 77 -62 130 -152 130 -55 0 -77 -9 -163 -67 -52 -35 -66 -34 -112 11
-37 37 -107 66 -158 66 -40 0 -55 -6 -94 -37 -25 -20 -56 -47 -69 -60 -32 -33
-57 -29 -112 17 -48 40 -128 80 -158 80 -9 -1 -34 -7 -54 -14z m-770 -72 c12
-8 22 -19 22 -24 0 -11 53 -92 87 -133 20 -25 23 -40 23 -111 0 -78 -2 -84
-36 -131 -19 -28 -50 -72 -67 -100 l-32 -50 -64 0 -64 0 -36 58 c-20 31 -49
75 -65 97 -25 35 -29 50 -31 120 -2 75 -1 83 27 123 34 49 68 101 92 140 15
24 22 27 69 27 31 0 62 -6 75 -16z m446 -19 c-1 -16 -3 -118 -4 -225 l-2 -195
53 0 c30 0 59 -3 65 -7 13 -8 9 -97 -4 -110 -5 -5 -42 -4 -83 2 -48 7 -106 7
-164 1 -49 -5 -93 -7 -97 -4 -5 2 -8 29 -8 59 0 60 -4 57 80 58 l55 1 2 163
c2 181 2 182 -63 141 -19 -11 -38 -18 -44 -14 -5 3 -10 33 -10 65 0 57 1 60
28 65 15 4 47 12 72 20 25 8 63 13 85 12 38 -2 40 -4 39 -32z m492 -50 c31
-47 61 -88 65 -91 5 -3 9 -50 9 -104 l0 -99 -64 -93 c-62 -91 -64 -93 -106
-96 -66 -5 -86 4 -110 50 -12 23 -41 67 -66 99 -43 56 -44 59 -44 134 0 75 1
78 43 133 24 31 47 64 51 72 34 71 45 80 113 80 l52 0 57 -85z m422 38 c16
-27 49 -75 72 -107 l42 -59 -4 -81 c-3 -79 -4 -82 -50 -143 -27 -34 -48 -65
-48 -68 0 -4 -9 -20 -21 -36 -18 -26 -26 -29 -72 -29 -63 0 -66 2 -109 65 -92
138 -98 151 -98 224 0 68 1 71 60 158 33 48 60 93 60 100 0 15 22 20 86 22 50
1 51 0 82 -46z m421 38 c11 -7 11 -15 2 -41 -7 -20 -11 -107 -11 -223 l0 -190
54 7 c37 4 57 2 64 -7 12 -14 10 -93 -4 -107 -5 -5 -39 -5 -88 2 -55 7 -103 7
-160 0 -94 -12 -97 -10 -94 63 l3 50 63 -3 c34 -2 62 0 62 5 3 120 1 316 -4
320 -3 4 -27 -4 -52 -16 -57 -29 -66 -21 -62 50 3 47 6 54 28 61 14 4 48 14
75 22 57 17 104 20 124 7z m445 3 c9 -3 16 -11 16 -18 0 -14 99 -159 111 -164
5 -2 9 -42 9 -89 0 -79 -2 -88 -32 -132 -17 -25 -49 -72 -70 -103 l-39 -58
-59 0 c-53 0 -60 3 -79 29 -12 16 -21 32 -21 35 0 7 -40 66 -51 76 -3 3 -15
21 -27 41 -17 28 -22 52 -22 106 l0 70 71 107 70 106 54 0 c29 0 60 -3 69 -6z
m441 -224 l0 -225 60 0 60 0 3 -50 c3 -74 -1 -77 -93 -64 -56 7 -101 7 -159 0
-44 -6 -83 -8 -87 -4 -13 15 -17 103 -5 111 6 4 36 7 65 7 l55 0 0 158 c1 88
-3 161 -8 164 -5 3 -29 -5 -53 -18 -52 -28 -58 -23 -57 48 1 62 8 73 48 73 17
0 36 4 42 9 14 13 44 19 89 18 l40 -2 0 -225z m450 0 l0 -225 60 0 60 0 3 -50
c3 -74 0 -77 -100 -64 -59 7 -109 7 -159 0 -89 -12 -99 -6 -99 60 0 54 -3 52
79 53 l54 1 0 160 c0 109 -4 160 -12 163 -6 2 -27 -6 -46 -18 -51 -31 -65 -22
-65 44 0 60 14 76 62 76 13 0 28 4 34 9 14 13 44 19 89 18 l40 -2 0 -225z"/>
<path d="M1136 4374 c-27 -42 -36 -67 -36 -99 0 -51 61 -155 91 -155 16 0 45
32 63 70 4 8 13 26 21 40 18 31 19 58 2 87 -6 12 -23 42 -36 67 -34 64 -58 62
-105 -10z m88 -71 c3 -10 2 -31 -2 -48 -7 -23 -14 -30 -33 -30 -20 0 -25 6
-27 33 -2 19 -1 40 2 48 8 20 54 18 60 -3z"/>
<path d="M2046 4405 c-9 -13 -16 -27 -16 -31 0 -3 -9 -17 -20 -31 -13 -17 -20
-41 -20 -68 0 -27 7 -51 20 -68 11 -14 20 -29 20 -34 0 -4 10 -21 23 -37 20
-25 26 -27 45 -17 12 6 22 17 22 22 0 6 14 31 30 56 38 55 39 99 4 150 -14 21
-30 48 -35 61 -12 30 -52 29 -73 -3z m69 -129 c0 -49 -28 -72 -51 -42 -15 21
-19 68 -7 80 4 4 19 6 33 4 22 -3 25 -8 25 -42z"/>
<path d="M2496 4408 c-85 -136 -85 -134 -14 -245 15 -23 32 -44 38 -48 13 -8
39 12 51 40 11 25 30 55 47 73 23 25 13 75 -28 140 -44 67 -69 78 -94 40z m63
-102 c14 -17 3 -73 -16 -81 -9 -3 -22 0 -29 6 -14 12 -19 70 -7 82 11 12 40 8
52 -7z"/>
<path d="M3392 4418 c-7 -7 -12 -17 -12 -22 0 -6 -14 -29 -30 -50 -31 -41 -40
-92 -19 -113 12 -12 32 -46 48 -78 12 -28 38 -48 51 -40 11 7 53 69 77 114 21
39 15 73 -27 139 -40 62 -63 75 -88 50z m56 -114 c12 -21 2 -74 -14 -81 -31
-12 -61 47 -42 81 11 20 44 21 56 0z"/>
<path d="M6477 4620 c-15 -5 -54 -31 -86 -59 -32 -28 -66 -51 -75 -51 -9 0
-42 21 -72 46 -31 25 -68 50 -83 56 -41 16 -131 1 -174 -29 -40 -28 -137 -134
-137 -150 0 -6 -8 -17 -18 -26 -16 -15 -18 -14 -29 11 -6 15 -14 43 -17 63 -9
53 -63 117 -108 130 -68 18 -142 -6 -211 -67 -44 -40 -69 -43 -90 -10 -21 32
-123 86 -162 86 -63 0 -122 -29 -175 -87 -58 -64 -76 -95 -101 -177 -16 -53
-17 -66 -4 -130 18 -93 36 -134 91 -206 87 -115 190 -134 305 -57 31 20 60 37
64 37 5 0 31 -17 59 -39 62 -46 95 -55 206 -53 93 1 155 18 206 57 18 14 38
25 44 25 7 0 37 -15 68 -34 69 -42 134 -54 184 -33 20 8 60 38 89 66 30 28 58
51 62 51 14 0 61 -34 81 -59 25 -31 117 -71 163 -71 27 0 54 12 104 46 l68 47
28 -18 c15 -10 39 -28 53 -41 49 -45 265 -56 346 -18 17 8 42 26 55 40 12 13
30 24 39 24 9 0 45 -19 79 -41 58 -38 68 -41 116 -37 54 5 73 15 159 91 24 20
50 37 57 37 8 0 37 -22 65 -48 65 -62 108 -82 178 -82 56 0 56 0 118 65 70 74
75 75 148 15 55 -45 97 -66 149 -75 80 -13 177 63 249 197 30 57 32 67 32 162
0 95 -2 103 -30 146 -16 25 -30 50 -30 57 0 25 -106 121 -146 132 -93 26 -141
11 -236 -72 l-58 -50 -54 51 c-62 59 -111 82 -173 82 -38 0 -56 -8 -107 -44
-34 -24 -68 -51 -75 -60 -19 -23 -44 -20 -72 10 -13 15 -48 42 -77 61 -67 43
-137 48 -199 14 -32 -19 -146 -138 -174 -183 -12 -19 -31 4 -26 30 6 32 -17
89 -51 125 -76 81 -170 76 -290 -14 -42 -33 -42 -33 -75 -15 -17 9 -54 32 -82
51 -52 37 -104 44 -168 25z m-1200 -82 c13 -12 23 -25 23 -30 0 -8 36 -64 50
-78 3 -3 15 -19 28 -37 19 -27 22 -45 22 -119 0 -79 -2 -89 -28 -123 -16 -20
-46 -64 -66 -99 l-38 -63 -61 3 -61 3 -48 70 c-100 143 -98 139 -98 213 0 61
11 97 39 122 11 9 51 69 51 75 0 3 5 11 10 18 6 7 19 24 31 40 18 23 27 27 72
27 38 0 56 -5 74 -22z m443 -163 c-2 -99 -4 -200 -4 -225 l-1 -45 45 -1 c84
-2 80 1 80 -53 0 -67 -10 -73 -103 -61 -48 6 -106 6 -159 0 -96 -11 -108 -4
-108 61 0 47 11 54 80 54 l54 0 1 159 c0 173 -3 183 -52 146 -42 -31 -63 -19
-63 37 0 55 14 83 43 83 12 0 40 7 62 15 22 8 60 14 84 12 l44 -2 -3 -180z
m436 177 c5 -4 21 -25 34 -47 13 -22 26 -42 29 -45 4 -3 21 -27 39 -53 30 -44
32 -53 32 -133 0 -79 -10 -116 -40 -144 -10 -10 -50 -69 -50 -75 0 -3 -10 -19
-22 -35 -20 -27 -27 -30 -80 -30 -57 0 -58 1 -85 43 -15 23 -47 68 -70 99 -43
56 -43 57 -43 143 0 47 5 91 10 98 31 36 91 124 102 148 7 16 19 30 28 33 26
7 105 6 116 -2z m442 2 c12 -4 22 -12 22 -19 0 -7 27 -50 60 -94 l60 -81 0
-86 c0 -80 -2 -89 -29 -123 -15 -20 -43 -61 -62 -91 -18 -30 -38 -58 -43 -62
-18 -13 -114 -9 -126 5 -6 6 -37 53 -70 102 l-60 90 0 84 c0 77 2 86 30 121
17 21 30 43 30 49 0 6 3 11 8 11 4 0 18 20 32 45 13 24 31 46 40 49 24 6 83 6
108 0z m451 -3 c7 -5 11 -17 8 -27 -3 -11 -7 -109 -9 -219 l-2 -200 59 0 60 0
0 -60 c0 -58 -1 -60 -25 -57 -31 3 -256 3 -290 0 -24 -3 -25 -1 -25 57 l0 60
63 -3 62 -4 0 166 c0 185 1 183 -67 146 -20 -10 -40 -17 -45 -14 -4 3 -8 32
-8 64 l0 58 48 12 c26 6 61 15 77 20 40 11 77 12 94 1z m435 3 c9 -3 37 -38
63 -78 26 -39 49 -73 53 -76 20 -18 30 -59 30 -120 0 -77 -8 -97 -71 -191 -22
-31 -39 -61 -39 -67 0 -20 -40 -33 -92 -30 l-51 3 -68 100 -69 100 0 86 c0 73
3 89 20 104 11 10 20 24 20 31 0 7 3 14 8 16 9 4 52 65 52 74 0 4 10 18 22 31
16 17 32 23 64 23 23 0 49 -3 58 -6z m520 -93 l66 -98 0 -89 0 -89 -63 -95
-62 -95 -60 -3 -60 -3 -67 103 -68 103 0 80 0 80 55 85 c80 123 77 120 138
120 l54 0 67 -99z m382 91 c6 -4 27 -32 47 -62 19 -30 49 -75 66 -99 28 -39
31 -52 31 -116 0 -64 -3 -77 -31 -116 -16 -24 -48 -72 -70 -106 l-41 -63 -58
0 c-66 0 -57 -8 -141 122 l-49 76 0 88 0 87 50 74 c28 40 50 76 50 80 0 4 7
15 17 25 12 13 30 18 67 18 28 0 56 -4 62 -8z"/>
<path d="M5151 4377 c-52 -81 -52 -113 -1 -197 23 -38 45 -70 49 -70 16 0 41
28 61 68 12 23 26 45 31 48 22 13 9 87 -27 145 -47 76 -67 77 -113 6z m87 -95
c6 -57 -38 -85 -59 -38 -7 14 -9 36 -5 51 5 21 12 26 34 23 23 -2 28 -8 30
-36z"/>
<path d="M6067 4412 c-9 -10 -17 -21 -17 -25 0 -3 -11 -23 -25 -43 -14 -20
-25 -51 -25 -69 0 -18 11 -49 25 -69 14 -20 25 -40 25 -45 0 -4 11 -18 25 -31
24 -23 25 -23 45 -5 11 10 20 22 20 28 0 5 14 29 30 54 37 55 38 82 3 136 -15
23 -32 51 -38 62 -14 27 -47 30 -68 7z m61 -108 c20 -35 -11 -93 -43 -80 -15
5 -22 76 -8 89 12 13 42 7 51 -9z"/>
<path d="M6521 4424 c-11 -8 -21 -19 -21 -24 0 -6 -13 -32 -30 -58 -37 -60
-37 -71 -2 -130 15 -26 32 -55 37 -66 16 -31 41 -42 56 -25 23 23 78 118 85
144 4 17 -6 43 -36 93 -23 39 -47 73 -55 75 -7 3 -22 -1 -34 -9z m49 -119 c15
-18 4 -74 -17 -82 -29 -11 -60 67 -36 90 11 12 40 8 53 -8z"/>
<path d="M7391 4395 c-11 -20 -21 -40 -21 -44 0 -5 -7 -14 -15 -21 -26 -21
-18 -84 15 -133 17 -25 30 -50 30 -56 0 -5 10 -16 22 -22 19 -10 25 -8 45 17
13 16 23 34 23 40 0 6 7 17 15 24 8 7 20 29 26 50 12 39 12 38 -45 135 -33 55
-66 59 -95 10z m77 -110 c4 -41 -21 -74 -45 -59 -19 11 -29 55 -19 81 4 9 16
13 33 11 23 -2 29 -9 31 -33z"/>
<path d="M7825 4373 c-51 -77 -51 -118 -2 -193 39 -58 57 -73 73 -62 21 15 84
131 84 156 0 15 -17 56 -37 91 -48 84 -66 86 -118 8z m85 -68 c15 -18 4 -74
-16 -82 -23 -8 -44 17 -44 52 0 17 3 35 7 38 11 12 40 8 53 -8z"/>
<path d="M8267 4365 c-20 -35 -37 -76 -37 -90 0 -32 77 -165 96 -165 7 0 32
28 55 63 54 80 57 123 11 188 -18 26 -32 52 -32 58 0 6 -13 11 -28 11 -24 0
-33 -9 -65 -65z m91 -91 c2 -30 -1 -43 -12 -47 -26 -10 -43 2 -50 35 -7 37 9
60 38 56 17 -2 22 -11 24 -44z"/>
<path d="M7848 3820 c-43 -29 -50 -30 -85 -20 -21 6 -113 14 -204 17 l-167 6
-49 -49 c-31 -31 -52 -63 -59 -89 -14 -53 -10 -560 5 -598 25 -65 111 -108
174 -88 37 13 97 71 97 95 0 29 41 103 62 114 122 64 143 89 141 168 -1 42 -7
62 -22 78 -27 29 -26 42 5 71 38 36 62 40 92 18 55 -41 61 -59 72 -210 9 -148
16 -172 69 -243 45 -61 100 -99 143 -100 15 0 30 -4 33 -10 8 -13 66 -13 101
0 15 6 40 22 56 35 38 32 54 31 136 -6 67 -31 67 -31 154 -19 48 6 100 9 116
6 47 -11 132 17 169 55 24 24 36 30 44 22 8 -8 7 -19 -3 -39 -9 -17 -13 -47
-10 -74 9 -108 111 -176 249 -167 59 4 80 11 125 40 63 40 97 77 129 144 23
46 24 60 27 278 2 144 0 243 -7 265 -6 19 -26 51 -45 71 -47 49 -102 63 -224
57 -105 -6 -138 -19 -216 -85 -48 -40 -73 -37 -133 18 -59 54 -101 69 -197 69
-125 0 -151 -7 -204 -55 l-47 -43 2 -91 2 -92 -35 -34 c-41 -41 -72 -44 -104
-10 -22 24 -24 36 -30 178 -7 166 -15 198 -69 260 -52 58 -92 78 -173 84 -69
5 -75 3 -120 -27z m189 -60 c6 0 27 -23 47 -50 l36 -50 0 -200 c0 -193 1 -202
23 -231 21 -30 23 -31 83 -24 76 8 83 0 75 -80 l-6 -60 -100 4 c-55 2 -101 7
-103 11 -1 4 -24 35 -49 70 l-47 62 3 205 3 205 -74 -3 -73 -4 -3 63 c-2 36 2
69 8 77 8 9 32 12 88 9 42 -2 82 -4 89 -4z m-287 -50 c5 -8 10 -39 10 -68 l0
-54 -57 6 c-148 15 -213 18 -214 10 -6 -52 -2 -160 6 -170 8 -10 27 -11 93 -3
46 6 90 8 98 5 19 -7 20 -124 1 -132 -7 -2 -51 0 -97 5 -63 7 -88 7 -96 -2 -8
-8 -9 -44 -4 -117 4 -58 5 -111 2 -118 -3 -9 -22 -12 -66 -10 l-61 3 -2 320
c-1 176 -1 325 1 330 2 6 75 10 190 10 155 0 188 -3 196 -15z m868 -150 l127
-1 43 -58 43 -58 2 -189 2 -189 -37 -3 c-29 -2 -41 2 -62 24 l-25 28 -73 -23
c-40 -12 -81 -27 -90 -32 -26 -14 -31 -12 -74 27 -21 19 -49 42 -61 51 -20 13
-23 24 -23 82 l0 66 53 34 c51 33 55 34 162 35 105 1 110 2 113 23 2 12 -2 32
-8 43 -11 21 -17 22 -138 19 l-127 -4 -3 59 c-3 60 8 81 36 71 8 -3 71 -5 140
-5z m752 -22 c-3 -7 -7 -128 -10 -268 l-5 -255 -45 -62 -45 -62 -107 -2 c-60
-2 -120 -3 -135 -3 -27 -1 -28 2 -36 63 -4 35 -5 66 -2 70 3 3 52 4 109 2
l103 -3 26 32 c18 21 27 43 27 67 l0 35 -46 -7 c-26 -4 -61 -14 -79 -22 -37
-18 -32 -20 -133 62 l-61 50 0 89 -1 89 77 71 77 71 125 5 c133 5 169 0 161
-22z"/>
<path d="M8529 3263 c-35 -15 -38 -41 -6 -71 28 -26 72 -28 146 -6 52 15 52
15 49 52 l-3 37 -79 0 c-43 0 -91 -5 -107 -12z"/>
<path d="M9095 3399 c-38 -35 -45 -47 -45 -79 0 -31 6 -42 35 -65 35 -26 38
-26 88 -15 83 20 82 19 81 102 -1 40 -2 79 -3 86 -1 8 -19 12 -56 12 -51 0
-59 -3 -100 -41z"/>
<path d="M5751 3809 c-36 -22 -45 -22 -156 1 -37 7 -113 11 -195 8 l-136 -3
-51 -40 c-40 -32 -53 -49 -62 -87 -12 -43 -11 -49 12 -85 14 -22 48 -59 76
-82 l51 -43 0 -148 c0 -217 20 -289 92 -326 47 -24 121 -14 158 21 52 50 62
86 69 244 8 193 26 200 35 14 8 -147 19 -189 64 -236 74 -78 155 -74 229 11
l32 37 48 -47 c74 -72 154 -75 218 -8 35 37 58 38 97 5 57 -48 109 -68 188
-73 95 -5 145 9 194 55 55 51 68 92 48 155 -13 39 -14 53 -4 66 30 41 42 85
42 150 0 58 -4 75 -28 113 -16 24 -53 63 -83 86 -51 39 -59 42 -139 48 -100 8
-143 -6 -224 -74 -54 -46 -110 -57 -121 -23 -6 20 -83 74 -130 92 -16 6 -45
10 -64 8 -34 -3 -35 -1 -43 38 -8 40 -65 111 -107 134 -31 16 -73 12 -110 -11z
m120 -171 c-4 -136 2 -152 44 -124 13 9 30 16 37 16 7 1 31 9 53 20 22 11 45
19 51 20 6 0 39 -30 73 -68 l63 -67 1 -185 2 -185 -60 0 -60 0 0 169 0 169
-27 20 c-25 19 -30 19 -100 6 l-73 -15 0 -174 0 -175 -62 -3 c-51 -2 -62 0
-65 14 -2 10 -2 163 0 340 l3 323 37 6 c20 3 44 10 52 15 31 18 35 4 31 -122z
m-216 21 c0 -72 5 -69 -91 -55 -39 6 -52 4 -56 -6 -2 -7 -1 -125 2 -263 3
-137 4 -255 2 -262 -5 -15 -111 -21 -123 -7 -6 7 -7 113 -3 271 6 200 4 262
-5 267 -7 5 -41 3 -77 -4 -77 -15 -98 -5 -89 42 3 15 7 40 10 56 l6 27 212 -1
212 -1 0 -64z m1012 -151 l53 -52 0 -68 c0 -57 -3 -70 -22 -88 -13 -11 -33
-23 -46 -27 -21 -5 -159 1 -217 9 -36 5 -30 -32 12 -68 43 -38 36 -36 159 -34
53 1 94 -3 98 -9 7 -11 -9 -90 -21 -101 -4 -5 -65 -5 -134 -2 l-127 7 -66 80
-66 79 0 81 0 80 46 50 c25 28 57 65 71 83 25 32 26 32 116 32 l91 0 53 -52z
m-1027 -59 c0 -20 -15 -26 -25 -9 -9 15 3 43 15 35 5 -3 10 -15 10 -26z"/>
<path d="M6447 3412 c-55 -56 -51 -62 51 -62 96 0 122 12 122 58 0 28 -28 42
-87 42 -43 0 -53 -4 -86 -38z"/>
<path d="M10030 3802 c-25 -16 -58 -48 -75 -72 l-30 -43 1 -256 c0 -317 4
-348 53 -395 42 -41 90 -55 215 -63 152 -10 232 27 275 127 12 27 25 50 30 50
4 0 32 -26 61 -57 98 -105 135 -120 233 -92 38 10 107 63 107 81 0 6 14 28 31
49 39 49 72 52 94 8 22 -41 100 -116 150 -142 67 -35 230 -25 305 20 27 15 32
15 80 0 90 -29 124 -24 179 28 26 25 54 45 62 45 7 0 30 -19 50 -42 34 -40 38
-42 98 -44 76 -2 110 21 137 91 9 25 22 45 29 45 7 0 41 -29 76 -65 35 -36 74
-68 88 -72 14 -3 36 -12 50 -19 55 -29 161 -7 213 43 15 15 31 43 34 62 4 20
11 39 17 43 15 10 -11 67 -50 108 -18 19 -33 39 -33 45 0 5 16 30 35 54 31 39
35 50 35 105 0 57 -3 64 -32 92 -18 16 -50 38 -70 48 -20 10 -66 47 -102 82
-63 62 -66 64 -117 64 -50 0 -54 -2 -103 -54 -28 -29 -61 -67 -74 -85 -28 -37
-45 -39 -91 -8 -94 61 -89 59 -180 52 -48 -3 -118 -7 -158 -9 -58 -1 -79 -6
-103 -25 -35 -26 -65 -23 -111 10 -36 26 -131 43 -193 34 -55 -7 -94 -25 -147
-66 -48 -38 -66 -36 -110 7 -30 29 -45 36 -90 40 -53 6 -55 5 -107 -40 -30
-25 -56 -46 -59 -46 -2 0 -18 14 -35 30 -56 56 -114 74 -183 57 -30 -7 -31 -6
-49 43 -10 29 -29 64 -43 80 -35 42 -117 70 -200 68 -37 -1 -86 2 -108 6 -34
6 -47 3 -85 -22z m213 -78 c106 5 139 3 142 -6 3 -7 6 -38 8 -68 l2 -55 -30 1
c-16 0 -76 4 -132 8 l-103 8 0 -75 c0 -42 3 -78 8 -80 4 -3 49 -1 100 5 52 5
96 7 100 4 3 -4 6 -32 6 -64 l1 -57 -107 2 -108 3 0 -75 c0 -40 3 -76 8 -78 4
-2 63 -1 130 2 68 3 129 3 135 -1 7 -4 7 -26 1 -69 l-9 -63 -192 0 c-106 -1
-193 2 -193 7 -4 71 0 649 4 656 4 5 23 5 48 -1 25 -6 100 -7 181 -4z m2081
-74 c0 -14 -3 -52 -5 -85 l-4 -60 95 -1 c52 0 101 -2 108 -2 8 -1 12 -21 12
-61 0 -38 -4 -61 -12 -64 -7 -2 -57 -2 -112 1 l-99 5 5 -64 c2 -43 10 -74 23
-92 19 -26 24 -28 90 -26 113 3 105 8 102 -68 l-2 -68 -114 2 c-62 1 -115 3
-116 5 -2 2 -26 35 -54 73 l-52 70 7 82 7 82 -54 3 -54 3 -3 58 c-2 63 -5 61
71 57 l38 -2 -3 78 -3 78 38 7 c20 3 40 9 44 13 4 4 16 6 28 4 14 -2 20 -10
19 -28z m-1682 -175 c-3 -83 -1 -95 26 -150 16 -33 34 -74 41 -92 20 -49 38
-48 61 4 11 25 20 48 20 51 0 3 11 28 24 56 23 48 24 57 15 131 -11 90 -8 95
58 95 73 0 73 1 66 -118 -5 -94 -10 -114 -36 -162 -17 -30 -48 -88 -69 -129
-21 -41 -43 -80 -48 -87 -7 -7 -33 -11 -68 -10 l-57 2 -30 59 c-43 84 -106
198 -115 210 -4 6 -10 58 -13 117 -5 80 -4 108 6 112 6 3 37 4 67 3 l55 -2 -3
-90z m1014 87 c6 -4 14 -17 18 -29 9 -29 34 -37 62 -18 13 8 29 15 36 15 7 1
31 9 53 20 52 25 69 25 88 -2 9 -13 36 -45 61 -72 l45 -48 3 -168 c2 -92 2
-175 0 -184 -3 -14 -14 -16 -65 -14 l-62 3 0 167 c0 159 -1 168 -22 189 -22
22 -24 22 -100 8 l-78 -14 0 -175 0 -175 -60 0 -60 0 -1 245 c0 135 2 248 4
253 4 9 64 9 78 -1z m-224 -53 c48 -51 48 -52 48 -121 0 -43 -5 -74 -13 -82
-34 -34 -59 -39 -179 -32 -94 6 -118 5 -118 -6 0 -19 10 -30 51 -61 33 -25 43
-27 137 -27 69 0 102 -4 104 -12 5 -13 -6 -96 -13 -102 -2 -2 -63 -1 -135 2
l-132 5 -31 41 c-16 22 -46 60 -64 83 -33 41 -35 45 -33 122 l2 79 53 58 c29
32 60 68 68 81 14 21 22 23 111 23 l96 0 48 -51z m-982 7 c0 -14 -4 -28 -10
-31 -6 -4 -10 7 -10 24 0 17 5 31 10 31 6 0 10 -11 10 -24z m0 -212 c0 -13 5
-33 12 -44 18 -28 4 -35 -31 -14 -33 20 -52 55 -32 62 7 2 17 10 24 17 16 17
27 9 27 -21z"/>
<path d="M11207 3410 c-21 -22 -35 -45 -32 -50 3 -6 43 -10 88 -10 89 1 127
18 127 59 0 28 -29 41 -92 41 -49 0 -56 -3 -91 -40z"/>
<path d="M1150 3811 c-67 -21 -170 -116 -170 -157 0 -7 -12 -26 -26 -43 -78
-94 -87 -297 -17 -402 15 -23 38 -61 49 -83 29 -55 124 -141 165 -150 17 -3
69 -6 116 -6 88 0 117 9 180 58 31 23 34 23 58 8 13 -9 30 -16 36 -16 7 0 20
-6 28 -14 9 -8 36 -20 61 -27 39 -10 54 -9 115 9 62 19 72 20 92 7 12 -8 31
-15 42 -15 38 0 67 -22 95 -71 34 -62 76 -89 136 -89 55 0 78 15 131 86 22 30
44 54 50 54 6 0 36 12 67 26 40 18 80 50 134 105 42 43 79 79 82 79 3 0 30
-32 61 -70 78 -98 136 -130 233 -130 80 0 96 6 159 56 23 19 45 34 50 34 5 0
31 -14 59 -32 27 -17 69 -37 94 -45 40 -12 51 -11 108 7 59 19 66 20 88 5 24
-15 43 -14 165 11 15 4 40 -1 57 -10 42 -22 76 -20 115 6 53 34 79 83 90 168
15 122 32 142 85 104 13 -9 44 -18 70 -21 66 -6 69 -7 93 -55 27 -54 91 -135
132 -169 48 -39 110 -59 180 -59 102 1 145 14 186 54 48 47 61 89 49 156 -8
46 -6 57 16 103 31 61 35 150 10 199 -23 43 -100 125 -138 144 -41 20 -160 29
-212 15 -22 -6 -72 -35 -112 -66 l-71 -54 -30 29 c-16 17 -32 30 -36 30 -3 0
-23 13 -43 29 -49 38 -80 44 -136 25 -45 -15 -84 -15 -179 2 -26 4 -52 1 -83
-11 -42 -16 -47 -16 -81 0 -56 27 -116 16 -162 -29 -49 -47 -76 -47 -134 4
-38 34 -52 40 -90 40 -34 0 -53 -7 -82 -30 -21 -17 -48 -33 -59 -36 -39 -9
-118 35 -183 104 l-61 65 -51 -6 c-64 -8 -89 -24 -142 -97 -57 -78 -98 -92
-144 -50 -11 10 -40 28 -64 41 -41 21 -46 21 -90 7 -25 -8 -68 -13 -96 -11
-120 10 -131 8 -172 -20 -40 -28 -40 -28 -79 -10 -22 9 -47 24 -58 33 -14 12
-47 15 -161 15 -132 0 -146 -2 -173 -22 -36 -27 -48 -18 -58 46 -8 52 -76 125
-132 141 -42 11 -175 12 -212 1z m254 -100 c3 -9 6 -41 8 -71 l3 -55 -115 0
-114 0 -31 -57 c-16 -31 -36 -63 -42 -70 -24 -23 -15 -96 17 -145 17 -24 30
-48 30 -52 0 -5 10 -21 22 -36 l21 -28 104 7 c82 6 103 5 104 -6 2 -24 -2 -83
-7 -109 l-5 -25 -128 1 c-70 1 -132 5 -139 9 -6 3 -25 32 -43 64 -18 31 -49
80 -70 109 -39 52 -39 52 -39 148 l0 96 59 92 c100 156 78 142 229 143 113 1
132 -1 136 -15z m1381 -123 l-7 -91 100 5 c66 4 104 2 111 -5 16 -16 14 -102
-2 -116 -10 -7 -39 -8 -98 -2 -46 4 -90 6 -96 3 -16 -5 -18 -118 -2 -127 5 -4
14 -18 19 -31 9 -22 15 -23 97 -26 l88 -3 3 -44 c7 -91 7 -90 -120 -87 -95 2
-113 5 -122 21 -6 9 -30 44 -54 77 l-42 59 6 79 7 80 -50 0 c-49 0 -51 1 -57
31 -3 17 -6 44 -6 60 0 27 2 28 53 31 l52 3 -3 72 c-4 72 -3 72 25 78 15 4 37
10 48 15 11 5 28 9 39 9 17 1 18 -5 11 -91z m-657 -36 c9 -10 22 -27 29 -38
11 -18 12 -18 43 -1 17 9 37 17 43 17 7 1 30 9 52 20 22 11 44 19 48 20 5 0
39 -33 77 -72 l69 -73 1 -105 0 -105 -75 -74 -76 -74 -52 3 c-29 1 -65 3 -82
4 l-30 1 0 -77 c0 -45 -5 -82 -12 -89 -13 -13 -90 -29 -107 -23 -15 6 -15 666
-1 676 18 14 55 8 73 -10z m1094 13 c12 -5 13 -37 10 -178 -4 -166 -3 -172 17
-185 21 -12 147 -7 170 7 8 5 9 56 2 177 -5 93 -8 171 -6 172 7 8 85 14 107 9
l23 -6 -2 -243 c-1 -134 -2 -246 -3 -249 -1 -21 -90 -11 -90 10 0 4 -6 15 -13
25 -12 16 -17 16 -82 -8 -39 -15 -80 -31 -92 -38 -21 -10 -28 -5 -88 58 l-65
69 -3 187 c-2 126 0 189 7 192 16 6 92 7 108 1z m495 -1 c14 -4 23 -15 25 -33
4 -32 38 -40 83 -18 73 35 123 57 129 57 4 0 35 -27 68 -60 57 -56 61 -62 60
-105 -2 -57 -4 -61 -44 -69 -73 -14 -73 -14 -76 32 -2 31 -9 46 -27 58 -21 14
-29 14 -76 0 -29 -9 -63 -16 -75 -16 -12 0 -24 -5 -26 -10 -2 -6 1 -78 5 -162
4 -83 6 -157 3 -165 -4 -10 -21 -13 -63 -11 l-58 3 -5 240 c-6 276 -4 281 77
259z m-1825 -46 c18 -24 38 -49 46 -56 9 -11 12 -60 10 -205 l-3 -192 -32 -3
c-25 -3 -39 3 -58 24 l-26 27 -72 -22 c-39 -12 -82 -27 -95 -32 -27 -11 -33
-8 -85 41 -21 19 -45 39 -53 43 -10 6 -14 27 -14 71 0 54 3 65 25 84 14 12 28
22 31 22 3 0 18 9 32 20 23 19 34 20 108 14 127 -10 156 6 123 68 -10 18 -19
20 -132 18 -67 -1 -128 -2 -136 -1 -11 1 -12 12 -8 51 3 28 9 55 12 60 4 6 67
10 150 10 l143 0 34 -42z m2667 -17 c49 -57 51 -61 51 -120 0 -56 -2 -62 -33
-85 -30 -23 -43 -26 -113 -26 -43 0 -99 5 -123 11 -24 5 -46 7 -49 5 -13 -13
12 -54 51 -83 l42 -31 93 7 c110 8 116 4 105 -66 l-9 -48 -127 2 c-70 1 -132
6 -139 10 -7 4 -25 24 -40 43 -15 19 -43 53 -63 75 -36 40 -36 40 -33 121 3
79 4 83 43 126 22 24 54 60 70 81 l30 36 96 1 96 0 52 -59z m-3085 27 c26
-142 26 -130 -2 -171 -36 -53 -53 -60 -133 -52 -53 5 -74 13 -95 32 -23 21
-26 29 -20 66 9 58 38 80 124 97 43 8 78 21 88 32 22 24 33 23 38 -4z"/>
<path d="M2220 3416 l-55 -12 -3 -101 c-3 -96 -1 -103 19 -113 39 -21 106 -3
155 42 42 38 44 44 44 95 0 46 -4 58 -26 78 -29 27 -49 29 -134 11z"/>
<path d="M1709 3271 c-59 -5 -99 -21 -99 -40 0 -3 12 -19 27 -35 24 -27 30
-28 84 -23 31 3 70 11 85 19 49 23 41 90 -10 86 -11 0 -51 -4 -87 -7z"/>
<path d="M4330 3414 c-62 -56 -55 -64 50 -64 79 0 92 3 110 22 25 27 25 40 2
61 -12 11 -36 17 -70 17 -46 0 -57 -4 -92 -36z"/>
</g>
</svg>
